:SAMPLES-PER-SECOND 30
:FRAME-RANGE 1-564
:FULLY-SPECIFIED
:DEGREES
247
root  19.333 40.621 6.71219 173.121 -66.5004 177.833
RightUpLeg  12.057 -3.65798 -1.38548
RightLeg  -7.37108 -17.5656 1.97237
RightFoot  2.02008 -0.197532 1.80346
RightToes  -1.74624e-010 0 -3.6325e-017
Spine  16.3024 5.54319 17.3953
Spine1  -5.85069 10.4001 -17.8108
HEad  0.151771 7.65457 -9.13504
LeftShoulder1  3.37047 -5.51266 -31.3784
LeftArm  2.09 -27.653 -32.1831
LeftForeArm  -46.7286 -36.2504 -10.2855
LeftHand  -0.540147 -0.167389 11.369
RightShoulder  18.4302 30.9872 46.3668
RightArm  -5.43215 28.3125 -1.76003
RightForeArm  -31.1782 16.484 9.79027
RightHand  4.74002 18.8239 21.7765
LeftUpLeg  1.15825 -2.08182 -4.91302
LeftLeg  0.966519 -14.1433 3.57532
LeftFoot  -4.97133 0.0847111 -0.984946
LeftToes  -6.43926e-010 8.38805e-011 -3.16407e-011
248
root  19.0449 40.591 6.22265 172.483 -67.2416 178.89
RightUpLeg  12.8651 -3.4302 -0.484174
RightLeg  -8.09172 -18.6111 2.63245
RightFoot  1.2982 -0.146616 1.40325
RightToes  -1.74624e-010 0 -3.6325e-017
Spine  16.2154 5.82193 17.0484
Spine1  -5.5869 10.5653 -17.0477
HEad  -0.337263 6.52673 -8.44938
LeftShoulder1  3.36128 -5.54908 -31.1248
LeftArm  2.37192 -28.6006 -31.8353
LeftForeArm  -47.9389 -36.4129 -10.3665
LeftHand  -0.461235 0.0776612 10.1449
RightShoulder  18.6534 31.393 46.3682
RightArm  -7.10308 28.5299 -2.21116
RightForeArm  -30.6531 15.8689 10.0529
RightHand  4.83776 18.8881 22.1645
LeftUpLeg  1.58157 -2.57795 -4.76177
LeftLeg  -2.0759 -18.934 4.96066
LeftFoot  -5.91468 0.106276 -1.49241
LeftToes  -6.43926e-010 8.38805e-011 -3.16407e-011
249
root  18.7586 40.5538 5.77491 171.754 -67.5144 -179.931
RightUpLeg  13.5015 -2.97144 0.549098
RightLeg  -8.74121 -19.5359 3.14176
RightFoot  0.667157 -0.111435 1.10227
RightToes  -1.74624e-010 0 -3.6325e-017
Spine  16.1287 6.15849 16.6526
Spine1  -5.34872 10.8197 -16.6778
HEad  -0.979295 5.44205 -7.61113
LeftShoulder1  3.34464 -5.62125 -30.6443
LeftArm  2.26639 -29.4519 -31.8186
LeftForeArm  -47.504 -36.1861 -10.2841
LeftHand  -0.520154 0.0465498 11.3707
RightShoulder  18.7322 31.5944 46.2861
RightArm  -8.04629 28.8441 -2.21834
RightForeArm  -30.734 15.5865 10.1779
RightHand  4.73721 18.6363 21.9364
LeftUpLeg  1.62249 -2.3562 -4.3078
LeftLeg  -2.71709 -21.0708 5.41258
LeftFoot  -5.37017 0.0554099 -0.442857
LeftToes  -6.43926e-010 8.38805e-011 -3.16407e-011
250
root  18.4714 40.5095 5.34476 170.557 -67.5934 -178.409
RightUpLeg  14.2277 -2.44784 1.70622
RightLeg  -9.31235 -20.2957 3.61467
RightFoot  0.0585667 -0.0633735 0.638634
RightToes  -1.74624e-010 0 -3.6325e-017
Spine  16.0867 6.42628 16.107
Spine1  -5.03995 10.988 -16.2347
HEad  -1.48746 4.47941 -6.35859
LeftShoulder1  3.32873 -5.6937 -30.1769
LeftArm  1.66921 -30.0426 -31.5939
LeftForeArm  -47.5382 -36.1911 -10.2865
LeftHand  -0.526472 0.283878 12.0216
RightShoulder  18.9278 31.8471 46.4319
RightArm  -9.19092 29.1463 -2.4632
RightForeArm  -29.2194 15.1125 10.3252
RightHand  4.95396 18.9114 22.6725
LeftUpLeg  1.47743 -2.10171 -3.54292
LeftLeg  -1.68985 -22.4179 5.45492
LeftFoot  -4.3588 0.0566988 -0.499255
LeftToes  -6.43926e-010 8.38805e-011 -3.16407e-011
251
root  18.1526 40.4633 4.96856 169.755 -67.5443 -177.241
RightUpLeg  14.6414 -2.04591 2.72806
RightLeg  -9.36063 -20.8711 3.65556
RightFoot  -0.633273 -0.050085 0.488154
RightToes  -1.74624e-010 0 -3.6325e-017
Spine  15.7863 6.60904 15.7175
Spine1  -4.67604 11.1022 -15.9011
HEad  -1.76585 3.46331 -4.9649
LeftShoulder1  3.29794 -5.64948 -30.0127
LeftArm  1.40243 -30.6542 -30.9324
LeftForeArm  -48.0525 -36.6282 -10.4381
LeftHand  -0.491611 0.609107 11.9617
RightShoulder  19.3765 32.2066 47.0656
RightArm  -12.5155 29.5673 -2.72702
RightForeArm  -27.1999 13.7587 10.7281
RightHand  4.85205 18.9667 22.1569
LeftUpLeg  1.77591 -1.71931 -2.71966
LeftLeg  -2.25288 -22.9494 5.73854
LeftFoot  -1.53456 0.165082 -1.8169
LeftToes  -6.43926e-010 8.38805e-011 -3.16407e-011
252
root  17.8325 40.4214 4.61176 169.018 -67.6311 -176.321
RightUpLeg  15.0886 -1.58094 3.60314
RightLeg  -9.10132 -21.6128 3.60172
RightFoot  -1.52882 -0.0527769 0.463106
RightToes  -1.74624e-010 0 -3.6325e-017
Spine  15.695 6.68335 15.2777
Spine1  -4.48346 11.1432 -15.992
HEad  -1.74622 2.16816 -3.59092
LeftShoulder1  3.26769 -5.66762 -29.6049
LeftArm  1.52363 -31.1126 -30.7072
LeftForeArm  -47.6271 -36.9714 -10.5387
LeftHand  -0.517755 0.723907 12.8969
RightShoulder  19.4388 32.1154 47.3512
RightArm  -16.899 30.1148 -2.46015
RightForeArm  -24.3522 11.8533 11.106
RightHand  5.11174 18.7127 23.5851
LeftUpLeg  1.40681 -1.0177 -1.89544
LeftLeg  -0.650756 -24.3859 4.80388
LeftFoot  -0.643642 0.0711156 -0.718264
LeftToes  -6.43926e-010 8.38805e-011 -3.16407e-011
253
root  17.4558 40.3953 4.32112 168.976 -67.7508 -176.146
RightUpLeg  15.5405 -1.49795 3.98221
RightLeg  -8.76618 -21.9671 3.40381
RightFoot  -2.23603 -0.0833457 0.855191
RightToes  -1.74624e-010 0 -3.6325e-017
Spine  15.1629 6.65866 14.8286
Spine1  -4.02592 11.0659 -15.9079
HEad  -1.11237 1.14073 -2.40146
LeftShoulder1  3.23155 -5.63645 -29.3256
LeftArm  1.38382 -31.1729 -30.4608
LeftForeArm  -47.268 -37.4153 -10.675
LeftHand  -0.528353 0.898362 13.6558
RightShoulder  19.7316 32.2517 47.8932
RightArm  -14.021 29.3957 -2.72251
RightForeArm  -28.2073 13.0116 11.0025
RightHand  4.62546 18.1186 21.8999
LeftUpLeg  1.4156 -1.45659 -2.09094
LeftLeg  0.470996 -24.6177 4.72547
LeftFoot  0.583095 -0.228602 2.15518
LeftToes  -6.43926e-010 8.38805e-011 -3.16407e-011
254
root  17.0774 40.3689 4.05274 168.978 -67.5594 -176.172
RightUpLeg  16.2005 -1.36812 4.24573
RightLeg  -8.514 -21.9108 3.14695
RightFoot  -2.98295 -0.0960811 1.02647
RightToes  -1.74624e-010 0 -3.6325e-017
Spine  14.9051 6.72371 14.508
Spine1  -3.75236 11.1281 -16.117
HEad  -0.206597 0.230675 -1.58427
LeftShoulder1  3.19613 -5.59851 -29.0786
LeftArm  0.662931 -30.9004 -30.2353
LeftForeArm  -46.6916 -37.6603 -10.7416
LeftHand  -0.511883 1.05348 13.6886
RightShoulder  19.8482 32.1081 48.389
RightArm  -12.3584 28.9968 -2.4115
RightForeArm  -29.3393 13.3905 10.9952
RightHand  4.79299 17.9685 22.8375
LeftUpLeg  1.45694 -1.93233 -2.32182
LeftLeg  2.08258 -24.1757 4.64511
LeftFoot  0.253012 -0.344226 3.37476
LeftToes  -6.43926e-010 8.38805e-011 -3.16407e-011
255
root  16.7347 40.3502 3.77473 168.796 -66.8068 -176.012
RightUpLeg  16.6992 -1.02821 4.7292
RightLeg  -7.97009 -21.5153 2.59989
RightFoot  -3.63319 -0.123805 1.47025
RightToes  -1.74624e-010 0 -3.6325e-017
Spine  14.9149 6.98212 14.1945
Spine1  -3.73099 11.3631 -16.2069
HEad  0.716401 -0.506919 -0.915435
LeftShoulder1  3.15865 -5.51631 -28.9806
LeftArm  -0.262578 -30.34 -29.4613
LeftForeArm  -45.9603 -37.955 -10.8211
LeftHand  -0.517787 0.871878 13.3065
RightShoulder  19.8302 31.6832 48.957
RightArm  -8.59955 28.5924 -1.73794
RightForeArm  -31.8141 14.5003 10.7915
RightHand  4.70827 18.1328 22.277
LeftUpLeg  1.58827 -1.56938 -1.89471
LeftLeg  3.48017 -23.88 4.0576
LeftFoot  -0.788462 -0.352279 3.86495
LeftToes  -6.43926e-010 8.38805e-011 -3.16407e-011
256
root  16.4085 40.3445 3.53536 168.934 -65.9939 -176.187
RightUpLeg  16.8927 -0.951381 4.85627
RightLeg  -6.93696 -20.837 2.06688
RightFoot  -4.33433 -0.14275 1.84934
RightToes  -1.74624e-010 0 -3.6325e-017
Spine  14.8457 7.2321 13.886
Spine1  -3.59532 11.5906 -16.2488
HEad  1.45187 -1.14345 -0.548699
LeftShoulder1  3.13149 -5.43276 -29.0042
LeftArm  -0.635742 -30.4338 -28.6357
LeftForeArm  -45.8707 -37.5471 -10.6833
LeftHand  -0.498554 0.94948 13.0283
RightShoulder  20.1284 31.5028 49.9706
RightArm  -5.60164 28.1964 -1.27464
RightForeArm  -34.7399 15.2712 10.6858
RightHand  4.75798 17.8753 22.7636
LeftUpLeg  1.80955 -1.34683 -1.62136
LeftLeg  4.68932 -23.2192 3.496
LeftFoot  -1.81247 -0.352787 4.36227
LeftToes  -6.43926e-010 8.38805e-011 -3.16407e-011
257
root  16.0941 40.335 3.33971 169.186 -65.3516 -176.475
RightUpLeg  16.8175 -1.09026 4.75516
RightLeg  -5.43195 -20.2169 1.47846
RightFoot  -5.21082 -0.164501 2.40919
RightToes  -1.74624e-010 0 -3.6325e-017
Spine  14.8545 7.38028 13.8298
Spine1  -3.60581 11.765 -16.3993
HEad  2.11736 -1.72158 -0.439698
LeftShoulder1  3.12579 -5.45662 -28.8439
LeftArm  -0.482957 -30.9766 -28.2043
LeftForeArm  -44.6429 -36.6358 -10.3544
LeftHand  -0.584699 0.412942 13.6789
RightShoulder  20.6662 31.5577 51.229
RightArm  -7.01728 28.3077 -1.14382
RightForeArm  -33.533 14.1944 11.148
RightHand  4.25441 17.8532 20.3782
LeftUpLeg  2.20981 -1.80012 -1.6954
LeftLeg  5.39815 -22.1633 3.41614
LeftFoot  -2.67532 -0.324115 4.48881
LeftToes  -6.43926e-010 8.38805e-011 -3.16407e-011
